<mxfile host="drawio-plugin" modified="2021-07-06T17:25:02.570Z" agent="5.0 (Windows NT 6.2; Win64; x64) AppleWebKit/537.36 (KHTML, like Gecko) Chrome/89.0.4389.90 Safari/537.36" etag="j1tIbiuUIAC1QfRqcYOR" version="14.7.4" type="embed"><diagram id="xbJtB5lxpouNMmkOfI7O" name="Page-1"><mxGraphModel dx="1099" dy="743" grid="1" gridSize="10" guides="1" tooltips="1" connect="1" arrows="1" fold="1" page="1" pageScale="1" pageWidth="1100" pageHeight="850" math="0" shadow="0"><root><mxCell id="0"/><mxCell id="1" parent="0"/><mxCell id="42" value="IP_Info" style="swimlane;fontStyle=1;align=center;verticalAlign=top;childLayout=stackLayout;horizontal=1;startSize=26;horizontalStack=0;resizeParent=1;resizeParentMax=0;resizeLast=0;collapsible=1;marginBottom=0;" parent="1" vertex="1"><mxGeometry x="90" y="830" width="240" height="270" as="geometry"/></mxCell><mxCell id="43" value="- FILE: String&#10;- URL: String&#10;- JSON: JSONHandler&#10;- MINRL: int&#10;- info: String&#10;- ip: String" style="text;strokeColor=none;fillColor=none;align=left;verticalAlign=top;spacingLeft=4;spacingRight=4;overflow=hidden;rotatable=0;points=[[0,0.5],[1,0.5]];portConstraint=eastwest;" parent="42" vertex="1"><mxGeometry y="26" width="240" height="104" as="geometry"/></mxCell><mxCell id="44" value="" style="line;strokeWidth=1;fillColor=none;align=left;verticalAlign=middle;spacingTop=-1;spacingLeft=3;spacingRight=3;rotatable=0;labelPosition=right;points=[];portConstraint=eastwest;" parent="42" vertex="1"><mxGeometry y="130" width="240" height="8" as="geometry"/></mxCell><mxCell id="45" value="+ IP_Info(ip: String): void&#10;+ getInfo(): String&#10;- writeTracker(header: Headers): void&#10;- readTracker(): JSONObject&#10;- checkTracker(): boolean&#10;- buildURL(ip: String): String&#10;- buildURL(ip: String, fields: String): String&#10;- mapsLink(x: double, y: double): String" style="text;strokeColor=none;fillColor=none;align=left;verticalAlign=top;spacingLeft=4;spacingRight=4;overflow=hidden;rotatable=0;points=[[0,0.5],[1,0.5]];portConstraint=eastwest;" parent="42" vertex="1"><mxGeometry y="138" width="240" height="132" as="geometry"/></mxCell><mxCell id="46" value="Whois" style="swimlane;fontStyle=1;align=center;verticalAlign=top;childLayout=stackLayout;horizontal=1;startSize=26;horizontalStack=0;resizeParent=1;resizeParentMax=0;resizeLast=0;collapsible=1;marginBottom=0;" parent="1" vertex="1"><mxGeometry x="50" y="260" width="230" height="140" as="geometry"/></mxCell><mxCell id="47" value="+ field: type" style="text;strokeColor=none;fillColor=none;align=left;verticalAlign=top;spacingLeft=4;spacingRight=4;overflow=hidden;rotatable=0;points=[[0,0.5],[1,0.5]];portConstraint=eastwest;" parent="46" vertex="1"><mxGeometry y="26" width="230" height="26" as="geometry"/></mxCell><mxCell id="48" value="" style="line;strokeWidth=1;fillColor=none;align=left;verticalAlign=middle;spacingTop=-1;spacingLeft=3;spacingRight=3;rotatable=0;labelPosition=right;points=[];portConstraint=eastwest;" parent="46" vertex="1"><mxGeometry y="52" width="230" height="8" as="geometry"/></mxCell><mxCell id="49" value="+ getWhois(domainName: String,&#10;   whoisServer: String): String&#10;+ getWhois(domainName: String, &#10;   whoisServer: Srting, port: int): String&#10;" style="text;strokeColor=none;fillColor=none;align=left;verticalAlign=top;spacingLeft=4;spacingRight=4;overflow=hidden;rotatable=0;points=[[0,0.5],[1,0.5]];portConstraint=eastwest;" parent="46" vertex="1"><mxGeometry y="60" width="230" height="80" as="geometry"/></mxCell><mxCell id="50" value="Whois_NIC" style="swimlane;fontStyle=1;align=center;verticalAlign=top;childLayout=stackLayout;horizontal=1;startSize=26;horizontalStack=0;resizeParent=1;resizeParentMax=0;resizeLast=0;collapsible=1;marginBottom=0;" parent="1" vertex="1"><mxGeometry x="420" y="870" width="210" height="270" as="geometry"/></mxCell><mxCell id="51" value="- RESPONSE: String&#10;- API_URL: String&#10;- domain: String&#10;- resDomain: String&#10;- resRegistrar: String&#10;- resRegistrationDate: String&#10;- resStatus: String&#10;- resAddress: String []&#10;- resNSDomain: String []&#10;- resNSIP: String []" style="text;strokeColor=none;fillColor=none;align=left;verticalAlign=top;spacingLeft=4;spacingRight=4;overflow=hidden;rotatable=0;points=[[0,0.5],[1,0.5]];portConstraint=eastwest;" parent="50" vertex="1"><mxGeometry y="26" width="210" height="154" as="geometry"/></mxCell><mxCell id="52" value="" style="line;strokeWidth=1;fillColor=none;align=left;verticalAlign=middle;spacingTop=-1;spacingLeft=3;spacingRight=3;rotatable=0;labelPosition=right;points=[];portConstraint=eastwest;" parent="50" vertex="1"><mxGeometry y="180" width="210" height="8" as="geometry"/></mxCell><mxCell id="53" value="+ Whois_NIC(domain: String): void&#10;+ getNicValues(): String&#10;- convertResultNic(): String&#10;- setDomain(domain: String): void&#10;- isIPAdress(domain: String): boolean" style="text;strokeColor=none;fillColor=none;align=left;verticalAlign=top;spacingLeft=4;spacingRight=4;overflow=hidden;rotatable=0;points=[[0,0.5],[1,0.5]];portConstraint=eastwest;" parent="50" vertex="1"><mxGeometry y="188" width="210" height="82" as="geometry"/></mxCell><mxCell id="54" value="API" style="swimlane;fontStyle=1;align=center;verticalAlign=top;childLayout=stackLayout;horizontal=1;startSize=26;horizontalStack=0;resizeParent=1;resizeParentMax=0;resizeLast=0;collapsible=1;marginBottom=0;" parent="1" vertex="1"><mxGeometry x="130" y="630" width="190" height="120" as="geometry"/></mxCell><mxCell id="55" value="+ responseHeaders: Headers&#10;+ responseCode: int" style="text;strokeColor=none;fillColor=none;align=left;verticalAlign=top;spacingLeft=4;spacingRight=4;overflow=hidden;rotatable=0;points=[[0,0.5],[1,0.5]];portConstraint=eastwest;" parent="54" vertex="1"><mxGeometry y="26" width="190" height="44" as="geometry"/></mxCell><mxCell id="56" value="" style="line;strokeWidth=1;fillColor=none;align=left;verticalAlign=middle;spacingTop=-1;spacingLeft=3;spacingRight=3;rotatable=0;labelPosition=right;points=[];portConstraint=eastwest;" parent="54" vertex="1"><mxGeometry y="70" width="190" height="8" as="geometry"/></mxCell><mxCell id="57" value="+ request(url: String): String&#10;+ checkResponseCode(): String" style="text;strokeColor=none;fillColor=none;align=left;verticalAlign=top;spacingLeft=4;spacingRight=4;overflow=hidden;rotatable=0;points=[[0,0.5],[1,0.5]];portConstraint=eastwest;" parent="54" vertex="1"><mxGeometry y="78" width="190" height="42" as="geometry"/></mxCell><mxCell id="58" value="ch.luatan.DNSResolver.Gui.GUIController" style="swimlane;fontStyle=1;align=center;verticalAlign=top;childLayout=stackLayout;horizontal=1;startSize=26;horizontalStack=0;resizeParent=1;resizeParentMax=0;resizeLast=0;collapsible=1;marginBottom=0;" parent="1" vertex="1"><mxGeometry x="60" y="30" width="160" height="86" as="geometry"/></mxCell><mxCell id="59" value="+ field: type" style="text;strokeColor=none;fillColor=none;align=left;verticalAlign=top;spacingLeft=4;spacingRight=4;overflow=hidden;rotatable=0;points=[[0,0.5],[1,0.5]];portConstraint=eastwest;" parent="58" vertex="1"><mxGeometry y="26" width="160" height="26" as="geometry"/></mxCell><mxCell id="60" value="" style="line;strokeWidth=1;fillColor=none;align=left;verticalAlign=middle;spacingTop=-1;spacingLeft=3;spacingRight=3;rotatable=0;labelPosition=right;points=[];portConstraint=eastwest;" parent="58" vertex="1"><mxGeometry y="52" width="160" height="8" as="geometry"/></mxCell><mxCell id="61" value="+ method(type): type" style="text;strokeColor=none;fillColor=none;align=left;verticalAlign=top;spacingLeft=4;spacingRight=4;overflow=hidden;rotatable=0;points=[[0,0.5],[1,0.5]];portConstraint=eastwest;" parent="58" vertex="1"><mxGeometry y="60" width="160" height="26" as="geometry"/></mxCell><mxCell id="62" value="JSON Handler" style="swimlane;fontStyle=1;align=center;verticalAlign=top;childLayout=stackLayout;horizontal=1;startSize=26;horizontalStack=0;resizeParent=1;resizeParentMax=0;resizeLast=0;collapsible=1;marginBottom=0;" parent="1" vertex="1"><mxGeometry x="980" y="650" width="210" height="190" as="geometry"/></mxCell><mxCell id="63" value="- BASEPATH: String&#10;- filename: String" style="text;strokeColor=none;fillColor=none;align=left;verticalAlign=top;spacingLeft=4;spacingRight=4;overflow=hidden;rotatable=0;points=[[0,0.5],[1,0.5]];portConstraint=eastwest;" parent="62" vertex="1"><mxGeometry y="26" width="210" height="44" as="geometry"/></mxCell><mxCell id="64" value="" style="line;strokeWidth=1;fillColor=none;align=left;verticalAlign=middle;spacingTop=-1;spacingLeft=3;spacingRight=3;rotatable=0;labelPosition=right;points=[];portConstraint=eastwest;" parent="62" vertex="1"><mxGeometry y="70" width="210" height="8" as="geometry"/></mxCell><mxCell id="65" value="+ JSONHandler(filename: String): void&#10;+ fileExists(): boolean&#10;+ readFile(): String&#10;+ write(object: JSONObject): void&#10;+ getBoolValue(key: String): boolean&#10;+ getStringValue(key: String): String&#10;+ message(message: String): String&#10;" style="text;strokeColor=none;fillColor=none;align=left;verticalAlign=top;spacingLeft=4;spacingRight=4;overflow=hidden;rotatable=0;points=[[0,0.5],[1,0.5]];portConstraint=eastwest;" parent="62" vertex="1"><mxGeometry y="78" width="210" height="112" as="geometry"/></mxCell><mxCell id="66" value="History" style="swimlane;fontStyle=1;align=center;verticalAlign=top;childLayout=stackLayout;horizontal=1;startSize=26;horizontalStack=0;resizeParent=1;resizeParentMax=0;resizeLast=0;collapsible=1;marginBottom=0;" parent="1" vertex="1"><mxGeometry x="900" y="930" width="230" height="260" as="geometry"/></mxCell><mxCell id="67" value="- HISTORYFILE: String&#10;- handler: JSONHandler&#10;" style="text;strokeColor=none;fillColor=none;align=left;verticalAlign=top;spacingLeft=4;spacingRight=4;overflow=hidden;rotatable=0;points=[[0,0.5],[1,0.5]];portConstraint=eastwest;" parent="66" vertex="1"><mxGeometry y="26" width="230" height="44" as="geometry"/></mxCell><mxCell id="68" value="" style="line;strokeWidth=1;fillColor=none;align=left;verticalAlign=middle;spacingTop=-1;spacingLeft=3;spacingRight=3;rotatable=0;labelPosition=right;points=[];portConstraint=eastwest;" parent="66" vertex="1"><mxGeometry y="70" width="230" height="10" as="geometry"/></mxCell><mxCell id="69" value="+ History(): void&#10;- init(): boolean&#10;- writeDefaultHistory(): void&#10;- readHistory(): String []&#10;- removeIndex(index: int): void&#10;- toTheEnd(start_pos: int): void&#10;- getIndex(domain: String): int&#10;- getArray(): JSONArray&#10;- domainExists(domain: String): boolean&#10;- getDomain(index: int): String&#10;+ addDomain(domain: String): void&#10;+ getHistory(): String []" style="text;strokeColor=none;fillColor=none;align=left;verticalAlign=top;spacingLeft=4;spacingRight=4;overflow=hidden;rotatable=0;points=[[0,0.5],[1,0.5]];portConstraint=eastwest;" parent="66" vertex="1"><mxGeometry y="80" width="230" height="180" as="geometry"/></mxCell><mxCell id="70" value="Settings" style="swimlane;fontStyle=1;align=center;verticalAlign=top;childLayout=stackLayout;horizontal=1;startSize=26;horizontalStack=0;resizeParent=1;resizeParentMax=0;resizeLast=0;collapsible=1;marginBottom=0;" parent="1" vertex="1"><mxGeometry x="1200" y="930" width="300" height="110" as="geometry"/></mxCell><mxCell id="71" value="- SETTINGS JSONHandler" style="text;strokeColor=none;fillColor=none;align=left;verticalAlign=top;spacingLeft=4;spacingRight=4;overflow=hidden;rotatable=0;points=[[0,0.5],[1,0.5]];portConstraint=eastwest;" parent="70" vertex="1"><mxGeometry y="26" width="300" height="26" as="geometry"/></mxCell><mxCell id="72" value="" style="line;strokeWidth=1;fillColor=none;align=left;verticalAlign=middle;spacingTop=-1;spacingLeft=3;spacingRight=3;rotatable=0;labelPosition=right;points=[];portConstraint=eastwest;" parent="70" vertex="1"><mxGeometry y="52" width="300" height="8" as="geometry"/></mxCell><mxCell id="73" value="+ editSettingsJSON(key: String, value: boolean): void&#10;- writeDefaultSettings(): void" style="text;strokeColor=none;fillColor=none;align=left;verticalAlign=top;spacingLeft=4;spacingRight=4;overflow=hidden;rotatable=0;points=[[0,0.5],[1,0.5]];portConstraint=eastwest;" parent="70" vertex="1"><mxGeometry y="60" width="300" height="50" as="geometry"/></mxCell><mxCell id="74" value="Extends" style="endArrow=block;endSize=16;endFill=0;html=1;" parent="1" source="42" target="54" edge="1"><mxGeometry width="160" relative="1" as="geometry"><mxPoint x="70" y="570" as="sourcePoint"/><mxPoint x="230" y="570" as="targetPoint"/></mxGeometry></mxCell><mxCell id="75" value="Extends" style="endArrow=block;endSize=16;endFill=0;html=1;" parent="1" source="50" target="54" edge="1"><mxGeometry width="160" relative="1" as="geometry"><mxPoint x="280" y="360" as="sourcePoint"/><mxPoint x="440" y="360" as="targetPoint"/></mxGeometry></mxCell><mxCell id="84" value="ch.luatan.DNSResolver.Main" style="swimlane;fontStyle=1;align=center;verticalAlign=top;childLayout=stackLayout;horizontal=1;startSize=26;horizontalStack=0;resizeParent=1;resizeParentMax=0;resizeLast=0;collapsible=1;marginBottom=0;" parent="1" vertex="1"><mxGeometry x="1040" y="350" width="190" height="190" as="geometry"/></mxCell><mxCell id="85" value="- ThemeDark: boolean&#10;- scene: Scene&#10;- stage: Stage&#10;- SETTINGS: Settings&#10;+ emptyRecordSetting: boolean" style="text;strokeColor=none;fillColor=none;align=left;verticalAlign=top;spacingLeft=4;spacingRight=4;overflow=hidden;rotatable=0;points=[[0,0.5],[1,0.5]];portConstraint=eastwest;" parent="84" vertex="1"><mxGeometry y="26" width="190" height="84" as="geometry"/></mxCell><mxCell id="86" value="" style="line;strokeWidth=1;fillColor=none;align=left;verticalAlign=middle;spacingTop=-1;spacingLeft=3;spacingRight=3;rotatable=0;labelPosition=right;points=[];portConstraint=eastwest;" parent="84" vertex="1"><mxGeometry y="110" width="190" height="8" as="geometry"/></mxCell><mxCell id="87" value="+ start(primaryStage: Stage): void&#10;-  loadSettings(): void&#10;+ changeTheme(): void&#10;+ setEmptyRecordSetting(): void" style="text;strokeColor=none;fillColor=none;align=left;verticalAlign=top;spacingLeft=4;spacingRight=4;overflow=hidden;rotatable=0;points=[[0,0.5],[1,0.5]];portConstraint=eastwest;" parent="84" vertex="1"><mxGeometry y="118" width="190" height="72" as="geometry"/></mxCell><mxCell id="88" value="GetRegistarTask" style="swimlane;fontStyle=1;align=center;verticalAlign=top;childLayout=stackLayout;horizontal=1;startSize=26;horizontalStack=0;resizeParent=1;resizeParentMax=0;resizeLast=0;collapsible=1;marginBottom=0;" parent="1" vertex="1"><mxGeometry x="1010" y="40" width="370" height="130" as="geometry"/></mxCell><mxCell id="89" value="- host: String" style="text;strokeColor=none;fillColor=none;align=left;verticalAlign=top;spacingLeft=4;spacingRight=4;overflow=hidden;rotatable=0;points=[[0,0.5],[1,0.5]];portConstraint=eastwest;" parent="88" vertex="1"><mxGeometry y="26" width="370" height="26" as="geometry"/></mxCell><mxCell id="90" value="" style="line;strokeWidth=1;fillColor=none;align=left;verticalAlign=middle;spacingTop=-1;spacingLeft=3;spacingRight=3;rotatable=0;labelPosition=right;points=[];portConstraint=eastwest;" parent="88" vertex="1"><mxGeometry y="52" width="370" height="8" as="geometry"/></mxCell><mxCell id="91" value="+ GetRegistrarTask(host: String): void&#10;# call(): String&#10;- setDomainCheckResult(host: String, whoisServer: String): String&#10;- getWHOIS_NIC(domain: String): String" style="text;strokeColor=none;fillColor=none;align=left;verticalAlign=top;spacingLeft=4;spacingRight=4;overflow=hidden;rotatable=0;points=[[0,0.5],[1,0.5]];portConstraint=eastwest;" parent="88" vertex="1"><mxGeometry y="60" width="370" height="70" as="geometry"/></mxCell><mxCell id="96" value="DNSRequest" style="swimlane;fontStyle=1;align=center;verticalAlign=top;childLayout=stackLayout;horizontal=1;startSize=26;horizontalStack=0;resizeParent=1;resizeParentMax=0;resizeLast=0;collapsible=1;marginBottom=0;" parent="1" vertex="1"><mxGeometry x="440" y="270" width="320" height="390" as="geometry"/></mxCell><mxCell id="97" value="- hostname: String&#10;- ip: String&#10;- messages: String []&#10;- a: String []&#10;- aaaa: String []&#10;- cname: String []&#10;- mx: String []&#10;- ns: String []&#10;- txt: String []&#10;- soa: String []" style="text;strokeColor=none;fillColor=none;align=left;verticalAlign=top;spacingLeft=4;spacingRight=4;overflow=hidden;rotatable=0;points=[[0,0.5],[1,0.5]];portConstraint=eastwest;" parent="96" vertex="1"><mxGeometry y="26" width="320" height="154" as="geometry"/></mxCell><mxCell id="98" value="" style="line;strokeWidth=1;fillColor=none;align=left;verticalAlign=middle;spacingTop=-1;spacingLeft=3;spacingRight=3;rotatable=0;labelPosition=right;points=[];portConstraint=eastwest;" parent="96" vertex="1"><mxGeometry y="180" width="320" height="8" as="geometry"/></mxCell><mxCell id="99" value="+ DNSRequests(): void&#10;+ DNSRequests(value: String, type: String)&#10;- setHost(host: String): void&#10;- setNameServer(): void&#10;- setAllRecords(): void&#10;- setRecords(type: String): void&#10;- addMessage(message: String): void&#10;- getPTRRecord(host: String): void&#10;- populateRecords(recordList: String [], type: String): void&#10;+ getRecords(type: String): String []&#10;- formatSOA(list: String []): String []&#10;+ getHostname(): String&#10;+ getIP(): String" style="text;strokeColor=none;fillColor=none;align=left;verticalAlign=top;spacingLeft=4;spacingRight=4;overflow=hidden;rotatable=0;points=[[0,0.5],[1,0.5]];portConstraint=eastwest;" parent="96" vertex="1"><mxGeometry y="188" width="320" height="202" as="geometry"/></mxCell><mxCell id="101" value="Extends" style="endArrow=block;endSize=16;endFill=0;html=1;" parent="1" source="84" target="103" edge="1"><mxGeometry width="160" relative="1" as="geometry"><mxPoint x="620" y="120" as="sourcePoint"/><mxPoint x="780" y="120" as="targetPoint"/></mxGeometry></mxCell><mxCell id="103" value="&lt;p style=&quot;margin: 0px ; margin-top: 4px ; text-align: center&quot;&gt;&lt;br&gt;&lt;b&gt;Application&lt;/b&gt;&lt;/p&gt;" style="verticalAlign=top;align=left;overflow=fill;fontSize=12;fontFamily=Helvetica;html=1;" parent="1" vertex="1"><mxGeometry x="1350" y="340" width="140" height="60" as="geometry"/></mxCell><mxCell id="104" value="&lt;p style=&quot;margin: 0px ; margin-top: 4px ; text-align: center&quot;&gt;&lt;br&gt;&lt;b&gt;Task&lt;/b&gt;&lt;/p&gt;" style="verticalAlign=top;align=left;overflow=fill;fontSize=12;fontFamily=Helvetica;html=1;" parent="1" vertex="1"><mxGeometry x="1540" y="80" width="140" height="60" as="geometry"/></mxCell><mxCell id="105" value="Extends" style="endArrow=block;endSize=16;endFill=0;html=1;" parent="1" source="88" target="104" edge="1"><mxGeometry width="160" relative="1" as="geometry"><mxPoint x="1240" y="60" as="sourcePoint"/><mxPoint x="1400" y="60" as="targetPoint"/></mxGeometry></mxCell></root></mxGraphModel></diagram></mxfile>